<svg width="" height="" viewBox="0 0 225 632" fill="none" xmlSpace="preserve" xmlns="http://www.w3.org/2000/svg">
<path d="M108.145 160.547L102.212 200.029L34.4062 245.891C34.4062 245.891 -1.24427 262.975 1.00013 273.589C3.00078 283.05 30.5105 281.93 39.1676 267.3L120.234 230.446L147.346 176.771L108.145 160.547Z" fill="#FFB8B8"/>
<path d="M108.5 558.589L111.5 600.589L140.5 598.589L135.5 558.589H108.5Z" fill="#FFB8B8"/>
<path d="M116.5 587.589C116.5 587.589 112.5 572.589 108.5 573.589L102.5 584.589C102.5 584.589 75.4999 609.589 67.4999 610.589C67.4999 610.589 41.4999 618.589 67.4999 630.589H97.4999C97.4999 630.589 117.5 629.589 121.5 630.589C125.5 631.589 148.5 631.589 149.5 625.589C150.5 619.589 146.5 607.589 146.5 607.589C146.5 607.589 142.812 578.086 138.656 583.838C136.484 586.923 134.092 589.847 131.5 592.589L116.5 587.589Z" fill="#2F2E41"/>
<path d="M183.5 559.089L186.5 601.089L215.5 599.089L210.5 559.089H183.5Z" fill="#FFB8B8"/>
<path d="M191.5 588.089C191.5 588.089 187.5 573.089 183.5 574.089L177.5 585.089C177.5 585.089 150.5 610.089 142.5 611.089C142.5 611.089 116.5 619.089 142.5 631.089H172.5C172.5 631.089 192.5 629.089 196.5 630.089C200.5 631.089 223.5 631.089 224.5 625.089C225.5 619.089 221.5 608.089 221.5 608.089C221.5 608.089 217.812 578.586 213.656 584.338C211.484 587.423 209.092 590.347 206.5 593.089L191.5 588.089Z" fill="#2F2E41"/>
<path d="M69.5 301.089L64.5 308.089V322.089L96.5 441.089L102.5 467.089C102.5 467.089 102.5 567.089 108.5 567.089C114.5 567.089 141.5 570.089 141.5 564.089C141.5 558.089 139.5 422.089 139.5 422.089L166.5 473.089C166.5 473.089 178.5 563.089 182.5 564.089C186.5 565.089 214.5 564.089 216.5 558.089L210.5 501.089C210.5 501.089 211.5 437.089 194.5 423.089C194.5 423.089 191.5 406.089 188.5 399.089C185.5 392.089 180.5 388.089 183.5 383.089C186.5 378.089 179.5 323.089 179.5 323.089C179.5 323.089 181.5 306.089 177.5 301.089C173.5 296.089 69.5 301.089 69.5 301.089Z" fill="#2F2E41"/>
<path d="M133.5 74.0889C150.621 74.0889 164.5 60.2097 164.5 43.0889C164.5 25.968 150.621 12.0889 133.5 12.0889C116.379 12.0889 102.5 25.968 102.5 43.0889C102.5 60.2097 116.379 74.0889 133.5 74.0889Z" fill="#FFB8B8"/>
<path d="M153 61.5889L151 81.5889L159 88.5889L108 112.589C120.563 91.1253 124.284 71.5813 118 57.5889L153 61.5889Z" fill="#FFB8B8"/>
<path d="M118 91.5889C118 91.5889 110 107.589 120 103.589L151 81.5889C151 81.5889 185 94.5889 197 109.589L187 215.589L179 290.589C179 290.589 184 299.589 183 300.589C182 301.589 181 299.589 182 302.589C183 305.589 186 302.589 183 305.589C180 308.589 177 305.589 180 308.589C183 311.589 180 312.589 180 312.589C180 312.589 176 288.589 141 306.589C106 324.589 91 329.589 65 307.589L95 193.589L97.4223 150.593C98.2314 136.231 100.787 122.021 105.033 108.278C107.326 100.854 111.321 93.5593 118 89.5889V91.5889Z" fill="#D0CDE1"/>
<path d="M171.5 179.089L186.5 216.089L151.5 290.089C151.5 290.089 143.5 299.089 148.5 310.089C151.083 315.967 154.091 321.648 157.5 327.089C157.5 327.089 166.5 323.089 166.5 306.089L217.5 233.089L213.5 173.089L171.5 179.089Z" fill="#FFB8B8"/>
<path d="M169.5 113.089C169.5 113.089 155.5 127.089 161.5 149.089C167.5 171.089 172.5 188.089 172.5 188.089C172.5 188.089 196.5 170.089 216.5 181.089C216.5 181.089 213.5 116.089 196.5 110.089C179.5 104.089 169.5 113.089 169.5 113.089Z" fill="#D0CDE1"/>
<path d="M158.984 16.4953C158.984 16.4953 149.512 -4.02622 131.359 0.709515C113.205 5.44525 102.944 12.5488 102.155 19.6524C101.366 26.756 102.55 37.4114 102.55 37.4114C102.55 37.4114 104.523 22.8096 117.152 25.9668C129.78 29.1239 149.512 26.7561 149.512 26.7561L152.67 55.1704C152.67 55.1704 158.053 49.4317 162 52.5888C165.946 55.746 171.613 22.8096 158.984 16.4953Z" fill="#2F2E41"/>
<path d="M2.15803 239.511L20.615 235.236C21.5056 235.03 22.44 235.133 23.2644 235.528C24.0888 235.923 24.7543 236.587 25.1514 237.41L44.0576 276.616C44.2638 277.044 44.3741 277.512 44.3805 277.986C44.3869 278.461 44.2894 278.931 44.0948 279.364C43.9002 279.798 43.6132 280.183 43.254 280.493C42.8947 280.804 42.472 281.032 42.0153 281.161L23.2579 286.491C22.2535 286.776 21.1796 286.686 20.2365 286.238C19.2935 285.79 18.5458 285.014 18.1329 284.055L6.06928 256.034L5.70173 256.237L3.40564 250.928L3.78736 250.733L0.419866 242.912C0.275634 242.577 0.207098 242.214 0.219121 241.849C0.231145 241.485 0.323451 241.127 0.489446 240.803C0.655441 240.478 0.891035 240.194 1.17945 239.97C1.46786 239.747 1.80201 239.59 2.15803 239.511V239.511Z" fill="#3F3D56"/>
<path d="M18.392 236.691L20.5465 236.192C21.1652 236.048 21.8144 236.121 22.3862 236.397C22.9579 236.674 23.4179 237.138 23.6898 237.712L42.1435 276.667C42.2498 276.891 42.3064 277.136 42.3095 277.384C42.3126 277.632 42.262 277.878 42.1614 278.105C42.0607 278.332 41.9123 278.534 41.7262 278.698C41.5401 278.862 41.3208 278.985 41.0832 279.056L22.4577 284.676C21.9322 284.834 21.3668 284.794 20.8693 284.562C20.3717 284.33 19.977 283.924 19.7603 283.419L2.30047 242.782C2.18746 242.518 2.13357 242.234 2.14257 241.948C2.15157 241.662 2.22328 241.381 2.35259 241.126C2.48191 240.87 2.66568 240.646 2.89098 240.47C3.11628 240.293 3.3776 240.168 3.65649 240.103L5.70037 239.63C5.89819 239.584 6.10558 239.605 6.29046 239.689C6.47534 239.773 6.62735 239.915 6.72301 240.095V240.095C6.80747 240.253 6.94169 240.379 7.10491 240.453C7.26813 240.527 7.45127 240.545 7.62591 240.505L17.3289 238.257C17.6709 238.178 17.9704 237.973 18.1675 237.682C18.3646 237.392 18.4448 237.038 18.392 236.691V236.691Z" fill="#FF2662"/>
</svg>
