<svg width="22" height="20" viewBox="0 0 22 20" fill="none" xmlns="http://www.w3.org/2000/svg">
<path d="M11.7289 0.00371948C11.7238 0.00885661 11.5003 0.0268366 11.2306 0.042248C10.5422 0.0859136 9.98997 0.144991 9.89493 0.183519C9.85127 0.204068 9.72798 0.227185 9.62267 0.237459C9.51735 0.247733 9.34012 0.28883 9.22711 0.329927C9.11409 0.371025 8.92402 0.427533 8.80329 0.455787C8.68257 0.484041 8.4514 0.548256 8.28958 0.599627C8.12776 0.64843 7.94796 0.699801 7.88888 0.712644C7.75275 0.740898 7.66799 0.779427 7.48048 0.895012C7.39572 0.948952 7.16968 1.06197 6.97961 1.1493C6.78954 1.23663 6.46847 1.38561 6.27069 1.48321C6.07034 1.58082 5.85201 1.68356 5.78266 1.71182C5.56176 1.79658 5.32802 1.94812 5.13795 2.12792C5.03521 2.22296 4.91448 2.32057 4.86825 2.34625C4.82202 2.36937 4.74239 2.43102 4.69102 2.48239C4.61653 2.55944 4.54975 2.59283 4.33142 2.65962C4.07199 2.73924 3.8588 2.77007 3.79973 2.73154C3.76633 2.71099 3.32711 2.6365 3.23464 2.63393C3.14217 2.63136 3.11649 2.67246 3.14731 2.7675C3.173 2.83428 3.16529 2.87024 3.10878 3.00637C2.97008 3.32744 2.87504 3.43019 2.51801 3.63824C2.28684 3.77694 2.16612 3.79492 2.02228 3.72044L1.9144 3.66393L1.86046 3.73585C1.67552 3.97216 1.47774 4.18021 1.25684 4.36258C0.915226 4.65283 0.78166 4.73502 0.560763 4.7941C0.33473 4.85574 0.311612 4.87372 0.293632 4.99701C0.283358 5.04838 0.237124 5.19479 0.188321 5.32065C0.131813 5.46192 0.106127 5.56467 0.11897 5.58521C0.129244 5.60576 0.183184 5.64943 0.239693 5.68025C0.31675 5.72392 0.337298 5.7496 0.332161 5.79327C0.324455 5.8395 0.337298 5.84978 0.396375 5.84978C0.542783 5.84978 0.609566 5.95509 0.591586 6.15544C0.573606 6.34037 0.61984 6.38661 0.663506 6.22993C0.69176 6.12718 0.694329 6.12205 0.720015 6.17855C0.755974 6.25561 0.79964 6.23763 0.809914 6.14259C0.822757 6.0116 0.840737 5.94995 0.866423 5.96536C0.881834 5.97307 0.892108 6.02187 0.892108 6.07067C0.892108 6.21965 0.953754 6.16057 0.971734 5.99362C0.992283 5.81639 1.05393 5.72649 1.04622 5.88831C1.03595 6.03471 1.04109 6.05526 1.08475 6.05526C1.11301 6.05526 1.12328 6.02701 1.12328 5.95766C1.12328 5.8395 1.1464 5.74703 1.17722 5.74703C1.19006 5.74703 1.20034 5.77529 1.20034 5.81125C1.20034 5.91142 1.27226 5.89087 1.2928 5.78556C1.31592 5.65713 1.34418 5.65457 1.40582 5.77272C1.50343 5.96536 1.54196 5.86262 1.4726 5.59292C1.45206 5.51586 1.43921 5.44651 1.44435 5.44138C1.48031 5.40798 1.53939 5.48761 1.6036 5.65457C1.64213 5.76245 1.68323 5.84978 1.69607 5.84978C1.70634 5.84978 1.71405 5.80611 1.71405 5.7496C1.71405 5.55439 1.73974 5.49275 1.82707 5.46963C1.89899 5.44908 1.90669 5.43881 1.89899 5.35404C1.88871 5.20764 1.97091 5.24103 2.00687 5.39771C2.02998 5.49532 2.06851 5.45422 2.07879 5.32322L2.08649 5.22048L2.13786 5.30267C2.19694 5.40028 2.22776 5.40798 2.24574 5.33606C2.26629 5.26158 2.31253 5.27185 2.3639 5.36175C2.42041 5.45679 2.4538 5.45936 2.47435 5.36689C2.48205 5.32836 2.49233 5.28726 2.49489 5.27185C2.49746 5.25901 2.52315 5.30267 2.54883 5.36946C2.5925 5.48761 2.63873 5.52871 2.63873 5.45165C2.63873 5.39771 2.68497 5.40285 2.72093 5.46449C2.76716 5.53641 2.79285 5.52871 2.79285 5.44394C2.79285 5.35148 2.81596 5.32836 2.86477 5.36689C2.89302 5.39257 2.90843 5.39 2.93412 5.35404C2.97265 5.30267 2.99833 5.29754 2.99833 5.34377C2.99833 5.36432 3.03172 5.37716 3.08823 5.37973C3.13704 5.3823 3.17813 5.37202 3.17813 5.36175C3.17813 5.34891 3.20125 5.3335 3.22694 5.32322C3.25519 5.31552 3.29115 5.26928 3.30656 5.22305C3.33482 5.13828 3.43242 5.0304 3.52746 4.9816C3.55571 4.96619 3.65845 4.93537 3.75606 4.91225C3.85367 4.8917 3.99751 4.83519 4.0797 4.79153C4.25179 4.69649 4.29289 4.7119 4.31601 4.87629C4.34169 5.06636 4.22611 5.26414 4.01549 5.40028C3.95127 5.44138 3.60451 5.51586 3.47609 5.51586C3.35793 5.51586 3.19868 5.58008 3.16015 5.64172C3.14217 5.66998 3.12162 5.74703 3.11135 5.81639C3.10364 5.88317 3.08566 5.96279 3.07282 5.99362C3.04457 6.07067 2.91614 6.16314 2.71579 6.25304C2.53342 6.33524 2.33051 6.53045 2.33051 6.62035C2.33051 6.69484 2.37417 6.68456 2.48976 6.57925C2.63103 6.45339 2.79285 6.38918 2.97265 6.38918C3.15502 6.38918 3.19611 6.35578 3.3117 6.11434C3.39646 5.94225 3.45554 5.90115 3.55314 5.95252C3.60708 5.98334 3.61222 5.99875 3.59681 6.10407C3.5891 6.16828 3.57883 6.22736 3.57369 6.23249C3.56855 6.23763 3.53516 6.22993 3.50177 6.21195C3.41187 6.16314 3.37591 6.19653 3.42215 6.28643C3.46324 6.36349 3.4427 6.39945 3.37334 6.37376C3.32968 6.35578 3.31684 6.40202 3.35793 6.4277C3.37078 6.43541 3.38362 6.47394 3.38362 6.5099C3.38362 6.56127 3.37334 6.57154 3.33995 6.55613C3.16015 6.48421 3.07282 6.48935 3.16786 6.56641C3.19611 6.58952 3.24235 6.6409 3.26803 6.68199L3.31684 6.75391L3.20125 6.74364C3.1396 6.73593 3.06768 6.72309 3.04457 6.71282C2.96494 6.67686 2.99063 6.76676 3.07539 6.82583C3.18327 6.90289 3.17043 6.92858 3.02659 6.92858C2.95467 6.92858 2.89302 6.93885 2.88532 6.95169C2.86734 6.97995 3.07025 7.08269 3.14731 7.08269C3.21152 7.08269 3.22437 7.12122 3.16529 7.14177C3.12162 7.15975 2.82881 7.11608 2.76202 7.08012C2.72607 7.06214 2.71579 7.06471 2.71579 7.09296C2.71579 7.11608 2.75432 7.15204 2.79798 7.17516C2.9033 7.2291 3.02402 7.319 3.02402 7.33955C3.02402 7.3678 2.79028 7.33955 2.66956 7.29845C2.53599 7.25478 2.53599 7.25478 2.53599 7.29331C2.53599 7.33184 2.74148 7.47568 2.8699 7.52705L2.9598 7.56301L2.87504 7.57585C2.82367 7.58356 2.72606 7.56558 2.62075 7.52705C2.44095 7.46541 2.38188 7.47054 2.47691 7.53989C2.50774 7.56558 2.55654 7.60154 2.58479 7.62209C2.61048 7.64264 2.63873 7.69658 2.64644 7.73767C2.66185 7.81473 2.65928 7.81473 2.55911 7.80703C2.40499 7.79161 2.43068 7.8584 2.62589 7.97141C2.71836 8.02535 2.79285 8.07672 2.79285 8.087C2.79285 8.1358 2.73377 8.1358 2.65158 8.08443C2.5514 8.02278 2.41013 7.97655 2.37931 7.9971C2.3228 8.03049 2.50774 8.19488 2.73377 8.31303C2.7723 8.33358 2.79285 8.36954 2.79798 8.43889C2.80569 8.52622 2.8134 8.5365 2.90843 8.55705C2.96494 8.56732 3.02659 8.58273 3.042 8.58787C3.06255 8.59301 3.07539 8.64181 3.07539 8.70859C3.07539 8.79079 3.09337 8.83959 3.14731 8.90637L3.2218 8.9937L3.28601 8.92949C3.35023 8.86527 3.35793 8.83188 3.45554 8.34129C3.51205 8.05874 3.5891 7.8173 3.69441 7.60154C3.75092 7.47825 3.8511 7.25735 3.91274 7.10837C3.97696 6.9594 4.05658 6.77446 4.08997 6.69484C4.12593 6.61521 4.15419 6.53815 4.15419 6.52531C4.15419 6.47908 4.41104 6.07067 4.49838 5.97821C4.54461 5.9294 4.60882 5.84464 4.63965 5.7907C4.67304 5.73933 4.7167 5.68025 4.74239 5.66227C4.76551 5.64686 4.83486 5.56723 4.89394 5.48761C5.03521 5.2924 5.1662 5.18966 5.33573 5.14085C5.60029 5.0638 5.608 5.05609 5.62854 4.83776C5.64909 4.60145 5.67992 4.51412 5.79036 4.3446C5.89568 4.18535 6.04979 4.0826 6.37857 3.94647C6.67652 3.82575 6.81265 3.74869 6.91283 3.64338C6.95649 3.59971 7.00273 3.56375 7.01557 3.56375C7.03098 3.56375 7.10804 3.53036 7.18766 3.48926C7.34178 3.40707 7.75532 3.28121 7.86833 3.28121C7.90686 3.28121 8.03272 3.22984 8.14574 3.16819C8.34609 3.06288 8.75449 2.91904 8.97025 2.88308C9.11409 2.8574 9.32985 2.80089 9.50965 2.74438C9.90521 2.61595 10.0388 2.59283 10.3367 2.60311C10.5114 2.61081 10.7323 2.59797 10.8992 2.57485C11.2177 2.53119 11.6981 2.52605 11.9344 2.56201C12.0243 2.57742 12.2143 2.62366 12.3582 2.66219C12.5971 2.72897 12.764 2.76236 13.1519 2.81887C13.2341 2.83171 13.3959 2.87024 13.5115 2.90363C13.6271 2.93959 13.794 2.97555 13.8839 2.98326C14.0663 3.00124 14.4593 3.15278 14.6391 3.27607C14.8112 3.39423 14.9319 3.44817 15.2504 3.55091C15.5021 3.6331 15.5561 3.66136 15.6331 3.74869C15.6845 3.8052 15.8052 3.9028 15.9054 3.96959C16.3112 4.23929 16.4011 4.32405 16.5398 4.57063C16.586 4.65283 16.6323 4.71961 16.6451 4.71961C16.7119 4.71961 17.1794 5.24103 17.2667 5.41312C17.2924 5.46192 17.3207 5.50816 17.3309 5.51586C17.3515 5.52871 17.7008 6.12975 17.7881 6.30185C17.8164 6.35578 17.8703 6.49449 17.9089 6.6075C17.9808 6.82583 18.1914 7.27276 18.3558 7.56301C18.4534 7.73511 18.6075 8.14094 18.682 8.41834C18.7025 8.4954 18.7591 8.67263 18.8079 8.8139C18.8695 8.986 18.8978 9.11186 18.8978 9.21203C18.8978 9.29936 18.9234 9.42522 18.962 9.53567C19.0416 9.76427 19.0416 9.80023 18.9568 10.0417C18.8926 10.224 18.8901 10.242 18.9286 10.2857C19.0185 10.3833 19.0159 10.4218 18.8978 11.1667C18.8669 11.3568 18.831 11.5648 18.8156 11.6291C18.8027 11.6933 18.7924 11.814 18.7924 11.9013C18.7976 12.0991 18.7668 12.2429 18.6435 12.5923C18.587 12.7464 18.5099 12.9775 18.4739 13.106C18.3943 13.3757 18.2813 13.5709 18.063 13.8123C17.9577 13.9305 17.8626 14.0795 17.7625 14.2772C17.6186 14.5701 17.4799 14.7524 17.0047 15.2867C16.9148 15.3843 16.8429 15.4742 16.8429 15.4845C16.8429 15.5281 16.1622 16.1215 16.0081 16.2114C15.9079 16.2705 15.7821 16.3783 15.6845 16.4888C15.4559 16.7456 15.2144 16.9152 14.7752 17.1309C14.6904 17.1746 14.598 17.2285 14.5697 17.2542C14.5415 17.2773 14.4028 17.3672 14.2615 17.452C14.1202 17.5393 13.9173 17.66 13.812 17.7243C13.5654 17.8732 13.2726 17.9914 13.0928 18.0119C13.0157 18.0222 12.9284 18.0402 12.9002 18.0505C12.7897 18.0993 12.5329 18.1866 12.3479 18.2354C12.0705 18.3073 11.7571 18.4024 11.4618 18.5C11.282 18.5616 11.1176 18.595 10.9121 18.6156C10.7503 18.631 10.5987 18.6541 10.5756 18.6669C10.5037 18.7055 9.89493 18.7697 9.60212 18.7697C9.38636 18.7697 9.32471 18.762 9.28618 18.726C9.25793 18.7029 9.16803 18.6746 9.07042 18.6644C8.83412 18.6335 8.54387 18.5436 8.46938 18.4743C8.43342 18.4435 8.34866 18.3921 8.27674 18.3613C8.13033 18.2971 7.62689 18.202 7.54726 18.2226C7.51387 18.2303 7.45993 18.2097 7.39829 18.1609C7.29041 18.0787 6.95393 17.9118 6.84348 17.8861C6.80495 17.8758 6.75101 17.8809 6.72532 17.8964C6.68936 17.9143 6.62258 17.9066 6.48131 17.8707C6.21675 17.8039 6.12171 17.7551 6.04979 17.6523C6.01383 17.5984 5.89824 17.5111 5.74413 17.4212C5.60543 17.3415 5.47957 17.2619 5.46416 17.2414C5.44618 17.2208 5.42306 17.2028 5.41022 17.2028C5.35114 17.2028 4.99154 16.928 4.81688 16.7508C4.709 16.6378 4.56259 16.4965 4.49581 16.4323C4.42902 16.3681 4.26207 16.1883 4.12337 16.0341C3.98723 15.8775 3.83312 15.7054 3.77918 15.6489C3.64304 15.5025 3.35023 15.1249 3.18584 14.886C3.0497 14.6831 2.79285 14.2002 2.79285 14.1437C2.79285 14.1283 2.7723 14.0846 2.74404 14.0486C2.56425 13.7918 2.12502 12.7823 2.12502 12.6231C2.12502 12.6102 2.10704 12.5846 2.08649 12.5691C2.03255 12.5306 1.86816 12.0349 1.85275 11.8628C1.8322 11.6573 1.79624 11.457 1.75515 11.3054C1.7346 11.2309 1.68066 10.9766 1.63699 10.7352C1.55994 10.3191 1.55737 10.278 1.56764 9.8028C1.58305 9.23515 1.59846 9.01168 1.63956 8.79079C1.67552 8.61099 1.69607 8.56732 1.79624 8.44403C1.91697 8.29762 1.99145 8.09214 1.9632 7.96884C1.94265 7.87124 1.95549 7.40119 1.98118 7.26249C2.0531 6.90032 2.06081 6.72052 2.0043 6.72566C1.97347 6.72823 1.73203 7.02618 1.61388 7.20855C1.54966 7.30872 1.47774 7.47568 1.42894 7.63236C1.35702 7.86097 1.3339 7.90463 1.22859 8.0048C1.08732 8.14094 0.735426 8.6264 0.755974 8.65722C0.76368 8.67006 0.807346 8.67263 0.851011 8.66493C0.917794 8.65208 0.946048 8.66236 0.987145 8.70602C1.05393 8.78051 1.21575 9.14011 1.24914 9.28909C1.27739 9.42009 1.244 9.52283 1.03338 9.97233C0.825326 10.4141 0.791934 10.4963 0.815051 10.5117C0.827894 10.5194 0.866423 10.4963 0.897246 10.4604C0.971734 10.3756 1.12071 10.2806 1.14383 10.3062C1.17465 10.3371 1.15153 10.7223 1.09759 11.0537C1.06677 11.2309 1.04879 11.3902 1.05393 11.4056C1.05907 11.421 1.10016 11.3902 1.1464 11.3388C1.21061 11.2695 1.244 11.2515 1.27482 11.2669C1.36216 11.3157 1.45206 11.5597 1.50856 11.8962C1.53682 12.0786 1.56764 12.2378 1.57278 12.2481C1.58048 12.2558 1.59076 12.3739 1.59846 12.5049C1.61388 12.7721 1.6447 12.9031 1.71919 13.052C1.74744 13.106 1.79368 13.2447 1.82193 13.3603C1.85018 13.4733 1.89128 13.6017 1.91183 13.6428C1.95549 13.725 1.98118 13.8072 2.03512 14.005C2.09933 14.2541 2.18153 14.4468 2.42554 14.9297C2.6824 15.4382 2.91871 15.8492 3.0009 15.9237C3.02659 15.9494 3.11135 16.047 3.18584 16.142C3.2629 16.2396 3.48379 16.4811 3.67643 16.684C3.86908 16.8843 4.02576 17.0616 4.02576 17.077C4.02576 17.0898 4.07713 17.1232 4.13621 17.1489C4.20556 17.1797 4.3006 17.2568 4.38279 17.3518C4.48553 17.47 4.54975 17.5162 4.64992 17.5522C4.7501 17.5907 4.7989 17.6267 4.86054 17.7114C5.01979 17.9426 5.62084 18.4846 5.79293 18.5565C5.8443 18.577 5.92393 18.6207 5.9676 18.6541C6.00869 18.6875 6.09089 18.7337 6.14483 18.7568C6.20134 18.7799 6.27326 18.821 6.30408 18.8493C6.34774 18.893 6.37857 18.9007 6.45819 18.8878C6.51984 18.8775 6.57891 18.8853 6.62001 18.9058C7.14914 19.196 7.34435 19.2911 7.50617 19.3425C7.76816 19.4272 9.5302 19.8459 9.90778 19.9127C10.3753 19.9974 12.425 20.0334 12.687 19.9615C12.7615 19.9409 12.9156 19.9178 13.0286 19.9101C13.2161 19.8973 13.3753 19.8639 13.7992 19.756C14.3951 19.6019 15.217 19.2885 15.4918 19.1113C15.7487 18.9443 16.0595 18.7825 16.265 18.7055C16.3652 18.6695 16.509 18.6001 16.586 18.5539C16.6631 18.5051 16.7915 18.4358 16.8686 18.3972C17.0227 18.3202 17.1486 18.2251 17.4106 17.9863C17.503 17.9015 17.6469 17.7936 17.7265 17.7448C17.8215 17.6909 17.9191 17.601 17.9936 17.5059C18.0604 17.4212 18.1452 17.3338 18.1863 17.3133C18.2274 17.2927 18.2762 17.2388 18.2941 17.19C18.3327 17.1001 18.4483 16.9974 18.7025 16.8304C18.8541 16.7302 18.9722 16.6018 19.5784 15.88C19.7197 15.7105 19.9046 15.4973 19.992 15.4048C20.1692 15.2148 20.313 14.999 20.5262 14.6035C20.6444 14.38 20.6855 14.2747 20.7369 14.0384C20.8345 13.5863 20.8422 13.5555 20.891 13.5015C20.9269 13.463 20.9398 13.4039 20.9398 13.2755C20.9423 13.1779 20.968 13.0084 20.9988 12.8979C21.0271 12.7849 21.0759 12.487 21.1067 12.2327C21.1555 11.8217 21.2095 11.4749 21.2891 11.0768C21.3019 11.0075 21.3379 10.9099 21.3662 10.8611C21.4124 10.784 21.415 10.7583 21.3893 10.6581C21.3662 10.558 21.3687 10.5066 21.4175 10.3011C21.474 10.0674 21.4766 10.0571 21.4329 9.87472C21.4098 9.77455 21.3713 9.57934 21.3482 9.44577C21.3251 9.31221 21.2917 9.1735 21.2737 9.13754C21.2223 9.03223 21.1324 8.64952 21.1324 8.52622C21.1324 8.46201 21.1221 8.36954 21.1067 8.31817C20.9629 7.78391 20.9269 7.57329 20.8524 6.81556C20.8345 6.63319 20.8113 6.57411 20.6547 6.26589C20.5571 6.07581 20.4466 5.89087 20.4106 5.85235C20.3747 5.81639 20.3285 5.7496 20.3053 5.70851C20.2822 5.66484 20.2308 5.56723 20.1897 5.49018C20.1461 5.41312 20.0588 5.24616 19.9894 5.11774C19.9226 4.99188 19.8533 4.87629 19.8353 4.86088C19.8173 4.84804 19.73 4.69649 19.6426 4.52697C19.4269 4.11086 19.3344 3.94904 19.3139 3.94904C19.3036 3.94904 19.2522 3.85914 19.1957 3.74869C19.0133 3.38652 18.9928 3.34542 18.9029 3.19902C18.8541 3.11682 18.7873 3.03463 18.7539 3.01151C18.7205 2.99096 18.6923 2.95757 18.6923 2.93702C18.6923 2.90877 18.6281 2.8163 18.5022 2.66219C18.4817 2.63907 18.3532 2.58256 18.2145 2.53633C17.8369 2.41304 17.7702 2.36937 17.051 1.76062C16.9225 1.65017 16.7787 1.54229 16.735 1.51917C16.6914 1.49606 16.5963 1.43441 16.5244 1.38561C16.4525 1.33424 16.3266 1.25718 16.247 1.21351C15.9079 1.03371 15.61 0.864189 15.4199 0.73833C15.2042 0.597058 14.937 0.494316 14.4285 0.353045C14.2666 0.309379 14.0406 0.245165 13.9276 0.211773C13.699 0.144991 13.175 0.0499537 12.9156 0.0319737C12.6613 0.0139937 11.7417 -0.00912335 11.7289 0.00371948ZM3.35023 3.7153C3.55314 3.84116 3.43242 4.13911 3.19098 4.10572C3.11649 4.09801 3.02402 3.98243 3.02402 3.9028C3.02402 3.81804 3.08566 3.723 3.16272 3.69218C3.24235 3.65879 3.26033 3.66136 3.35023 3.7153Z" fill="#FF2662"/>
</svg>
