<svg width="201" height="635" viewBox="0 0 201 635" fill="none" xmlns="http://www.w3.org/2000/svg">
<path d="M116.808 53.3882H48.8853V112.239H116.808V53.3882Z" fill="#FF6584"/>
<path opacity="0.1" d="M116.869 53.5767H48.9458V112.427H116.869V53.5767Z" fill="black"/>
<path d="M13.4202 245.328L4.17571 320.8C4.17571 320.8 -8.55447 357.172 16.2997 363.385C41.1539 369.599 18.2699 313.828 18.2699 313.828L27.8175 244.57L13.4202 245.328Z" fill="#FFC1C7"/>
<path d="M35.8497 178.192C35.8497 178.192 30.0908 249.571 29.3331 249.571C28.7556 249.571 23.9621 249.923 18.1623 250.225C16.3437 250.319 14.4281 250.408 12.511 250.481C4.4789 250.784 10.9955 239.418 11.4502 238.66C11.9048 237.902 9.78316 230.931 6.29747 225.172C2.81178 219.413 7.50987 223.353 10.9955 218.807C14.4811 214.26 11.2986 216.382 6.90364 212.745C2.5087 209.108 9.47998 207.895 13.1172 206.38C16.7544 204.864 12.9656 204.41 8.8738 201.833C4.78196 199.257 8.2676 187.588 8.8738 163.946C9.23116 152.495 12.1174 141.264 17.3257 131.06C18.5263 128.637 19.9056 126.306 21.4524 124.088L30.3938 123.331C30.3938 123.331 34.4857 139.698 34.7888 141.517C35.0919 143.335 35.8497 178.192 35.8497 178.192Z" fill="#2F2E41"/>
<path d="M59.1882 53.6177C59.1882 53.6177 63.5832 91.202 57.8243 94.6876C52.0655 98.1733 49.6406 108.933 49.6406 108.933L71.1607 120.148L107.836 113.025L106.472 94.5361C106.472 94.5361 88.8919 93.1721 92.5291 84.2307C94.8368 78.3913 96.6121 72.3553 97.8334 66.1963L59.1882 53.6177Z" fill="#FFC1C7"/>
<path opacity="0.1" d="M59.1882 53.6177C59.1882 53.6177 63.5832 91.202 57.8243 94.6876C52.0655 98.1733 49.6406 108.933 49.6406 108.933L71.1607 120.148L107.836 113.025L106.472 94.5361C106.472 94.5361 88.8919 93.1721 92.5291 84.2307C94.8368 78.3913 96.6121 72.3553 97.8334 66.1963L59.1882 53.6177Z" fill="black"/>
<path d="M83.5875 440.372C81.1801 447.843 82.5268 483.005 83.237 498.134C83.4632 502.954 83.4613 507.776 83.231 512.599L81.6174 546.609L81.6567 547.639L83.5875 597.832L65.4015 595.711L64.0375 568.28C64.0375 568.28 62.3492 561.715 59.9669 551.834C53.4896 524.976 41.8809 473.63 45.0938 463.105C49.4888 448.708 38.5771 395.059 38.5771 395.059L76.7677 388.239C76.7677 388.239 86.872 430.18 83.5875 440.372Z" fill="#FFC1C7"/>
<path d="M173.608 603.987L163 610.049C163 610.049 143.753 602.624 142.692 602.32C141.631 602.017 140.419 586.105 140.419 586.105C140.419 586.105 137.915 569.777 134.774 553.067C132.561 541.294 130.033 529.334 127.84 522.757C122.536 506.844 123.142 453.802 122.536 450.316C121.93 446.83 103.289 382.27 103.289 382.27C103.289 382.27 143.753 374.693 148.906 379.239C154.058 383.786 158.908 438.647 158.605 450.316C158.302 461.985 159.969 532.456 159.969 532.456C159.969 532.456 160.176 542.704 160.501 553.631C160.731 561.354 161.019 569.414 161.333 574.435C161.8 581.682 164.868 588.516 169.971 593.682L173.608 603.987Z" fill="#FFC1C7"/>
<path d="M156.786 601.563C156.786 601.563 146.329 587.772 170.729 588.833C170.729 588.833 173.002 591.257 177.397 597.168C181.792 603.078 210.435 625.356 196.037 629.599C181.64 633.843 163.111 636.225 157.5 631.954C149.318 633.957 140.816 634.297 132.5 632.954C132.5 632.954 134.205 605.503 135.569 602.321C136.933 599.138 138.449 583.074 138.449 583.074L154.968 604.139L156.786 601.563Z" fill="#2F2E41"/>
<path d="M84.8001 75.7438C101.958 75.7438 115.868 61.8343 115.868 44.6761C115.868 27.5179 101.958 13.6084 84.8001 13.6084C67.6419 13.6084 53.7324 27.5179 53.7324 44.6761C53.7324 61.8343 67.6419 75.7438 84.8001 75.7438Z" fill="#FFC1C7"/>
<path opacity="0.1" d="M35.8495 178.192C35.8495 178.192 30.0906 249.571 29.3329 249.571C28.7554 249.571 23.9619 249.923 18.1621 250.225C18.4278 249.533 18.8245 248.9 19.3305 248.359C23.1193 244.873 24.9379 218.807 24.9379 218.807L19.7852 171.827L24.2559 130.832C26.5352 126.362 21.4522 124.088 21.4522 124.088L30.3937 123.331C30.3937 123.331 34.4855 139.698 34.7886 141.517C35.0917 143.335 35.8495 178.192 35.8495 178.192Z" fill="black"/>
<path d="M134.357 101.962C134.357 101.962 105.562 90.1413 103.441 91.2021C101.319 92.263 95.56 96.5064 95.56 96.5064C95.56 96.5064 82.072 110.6 63.8861 106.509C63.8861 106.509 57.6725 103.478 57.8241 94.6878C57.8241 94.6878 38.8804 104.842 32.9699 111.51C27.0595 118.178 21.4522 124.088 21.4522 124.088L24.3316 171.827L29.4843 218.807C29.4843 218.807 27.6657 244.873 23.877 248.359C20.0882 251.845 15.2386 282.003 20.8459 331.105C26.4533 380.207 14.9355 396.423 21.6037 400.818C28.2719 405.213 79.1926 402.334 108.593 403.697C137.994 405.061 156.331 396.878 154.816 394.756C153.3 392.634 146.632 316.556 151.633 295.036C156.634 273.516 152.846 228.355 152.846 228.355L134.357 101.962Z" fill="#2F2E41"/>
<path d="M126.022 238.054C126.022 238.054 118.141 299.583 112.685 305.19C107.229 310.798 105.259 355.353 114.807 355.353C124.355 355.353 132.993 306.1 132.993 306.1L147.542 239.418L126.022 238.054Z" fill="#FFC1C7"/>
<path d="M56.4605 595.408C56.4605 595.408 76.162 582.071 86.6189 595.408C86.6189 595.408 91.0138 625.111 86.6189 628.446C82.2239 631.78 52.2171 637.387 51.6109 628.446C51.0047 619.504 53.1264 615.412 53.1264 615.412L56.4604 603.288L56.4605 595.408Z" fill="#2F2E41"/>
<path opacity="0.1" d="M131.704 110.07L130.719 104.841C130.719 104.841 152.846 128.635 156.483 149.245C160.12 169.856 168.152 191.225 162.545 194.104C156.938 196.983 152.391 196.074 154.967 200.772C157.544 205.47 158.301 211.078 155.725 212.896C153.149 214.715 151.33 216.23 152.239 220.019C153.149 223.808 153.149 231.537 151.33 233.204C149.512 234.871 144.965 248.207 144.965 248.207C144.965 248.207 126.476 242.145 119.505 246.237C112.534 250.329 118.444 230.324 118.444 230.324C118.444 230.324 116.928 222.292 114.655 220.928C112.382 219.564 111.018 216.988 113.897 214.26C116.777 211.532 119.05 211.532 115.11 207.744C111.169 203.955 105.865 205.622 111.321 201.682C116.777 197.741 119.656 195.923 116.019 192.134C112.382 188.345 109.199 186.223 111.776 182.889C114.352 179.555 118.974 106.736 131.704 110.07Z" fill="black"/>
<path d="M129.204 102.871L134.357 101.962C134.357 101.962 156.483 125.755 160.12 146.366C163.757 166.977 171.789 188.345 166.182 191.225C160.575 194.104 156.028 193.195 158.605 197.893C161.181 202.591 161.939 208.198 159.362 210.017C156.786 211.835 154.967 213.351 155.877 217.14C156.786 220.928 156.786 228.657 154.967 230.325C153.149 231.992 148.602 245.328 148.602 245.328C148.602 245.328 130.113 239.266 123.142 243.358C116.171 247.45 122.081 227.445 122.081 227.445C122.081 227.445 120.566 219.413 118.292 218.049C116.019 216.685 114.655 214.109 117.535 211.381C120.414 208.653 122.687 208.653 118.747 204.864C114.807 201.075 109.502 202.742 114.958 198.802C120.414 194.862 123.293 193.043 119.656 189.255C116.019 185.466 112.836 183.344 115.413 180.01C117.989 176.676 116.474 99.5371 129.204 102.871Z" fill="#2F2E41"/>
<path d="M58.6426 8.97419C55.3328 11.5075 52.5354 14.6477 50.3998 18.2271C49.354 20.2723 48.4798 22.4008 47.786 24.5906C45.3263 31.6696 39.2118 38.8393 41.7997 45.8726C42.5381 47.8795 43.6895 49.9955 43.0275 52.0289C42.4396 53.8348 40.6251 54.8886 39.3126 56.2612C36.4956 59.2074 36.0221 63.628 35.85 67.7006C35.5349 75.1588 39.6358 83.9479 44.5911 89.531C45.6669 90.5813 46.6637 91.7097 47.5732 92.9069C48.1865 93.8616 48.5873 94.937 48.7485 96.0603C48.9096 97.1835 48.8274 98.3282 48.5073 99.4169L55.7258 97.9103C55.9862 100.575 56.0676 103.255 55.9694 105.931C57.681 106.119 59.4051 105.711 60.8513 104.776C62.2975 103.842 63.3774 102.437 63.9089 100.799C64.3175 102.708 64.9847 104.551 65.892 106.279C68.0095 103.631 69.6334 100.623 70.6864 97.3998C72.0678 93.2714 72.3643 88.8571 71.5474 84.581C70.7829 81.4579 69.7429 78.4088 68.4395 75.4696C65.8888 69.0235 63.8059 62.404 61.7253 55.7912C60.6448 52.3567 59.5512 48.8105 59.8787 45.2249L62.4436 44.9459C62.472 43.5297 62.7459 42.1291 63.2531 40.8064C64.7564 41.1245 66.2028 41.6688 67.5427 42.4208L70.4996 34.918C72.4511 36.9419 75.2518 37.858 77.9335 38.7024L88.1265 41.9118L88.1884 39.8946C92.4908 43.7032 97.3913 46.7771 102.693 48.9927C102.394 48.6312 102.175 48.21 102.052 47.7572C101.928 47.3044 101.902 46.8305 101.977 46.3671C104.488 50.8669 103.484 56.4728 101.934 61.3875C100.384 66.3023 98.327 71.3059 98.9512 76.4213C99.4181 80.2473 101.378 83.9063 101.015 87.7434C100.836 89.633 100.097 91.4311 99.8669 93.3152C99.3188 97.8086 101.681 102.088 103.962 105.998L108.396 99.9078C109.889 97.5822 111.783 95.5405 113.99 93.8779C116.349 92.314 119.273 91.6119 121.329 89.6665C124.999 86.1936 124.533 80.2771 123.34 75.3676C122.705 72.7577 121.938 70.1108 122.171 67.4351C122.566 62.8991 125.718 59.1461 127.493 54.9533C128.759 51.8962 129.307 48.5899 129.097 45.2879C128.886 41.986 127.922 38.7761 126.279 35.9044C124.076 32.1261 120.748 29.0832 118.672 25.2338C116.606 21.4018 115.817 16.8422 112.986 13.5351C111.604 12.0301 109.996 10.749 108.22 9.73755C100.173 4.90277 91.135 1.9542 81.785 1.11329C72.9179 0.186306 65.4375 3.37299 58.6426 8.97419Z" fill="#FF6584"/>
</svg>
